<svg width="22" height="22" viewBox="0 0 22 22" fill="none" xmlns="http://www.w3.org/2000/svg">
<path d="M22 13.3086V11.1358C22 10.2243 22 9.41412 21.9858 8.69136H0.0141922C0 9.41412 0 10.2243 0 11.1358V13.3086C0 17.4058 0 19.4544 1.28873 20.7272C2.57746 22 4.65164 22 8.8 22H13.2C17.3484 22 19.4225 22 20.7113 20.7272C22 19.4544 22 17.4058 22 13.3086Z" fill="#C0B4FF"/>
<path d="M6.325 0.814815C6.325 0.364805 5.95564 0 5.5 0C5.04437 0 4.675 0.364805 4.675 0.814815V2.53055C3.09174 2.65577 2.05235 2.96307 1.28873 3.71726C0.525112 4.47146 0.213965 5.49801 0.087183 7.06173H21.9128C21.786 5.49801 21.4749 4.47146 20.7113 3.71726C19.9477 2.96307 18.9083 2.65577 17.325 2.53055V0.814815C17.325 0.364805 16.9556 0 16.5 0C16.0444 0 15.675 0.364805 15.675 0.814815V2.45846C14.9432 2.44444 14.1229 2.44444 13.2 2.44444H8.8C7.87706 2.44444 7.05679 2.44444 6.325 2.45846V0.814815Z" fill="#C0B4FF"/>
</svg>
