<svg width="286" height="45" viewBox="0 0 286 45" fill="none" xmlns="http://www.w3.org/2000/svg">
<path d="M25.3966 16.9643H4.4089C4.30796 16.9643 4.22691 17.0454 4.22691 17.1463V20.9588C4.22691 21.0597 4.30796 21.1408 4.4089 21.1408H26.1322C26.2332 21.1408 26.3142 21.0597 26.3142 20.9588V18.9386C26.3142 18.9157 26.3096 18.8912 26.3004 18.8698L25.5649 17.0759C25.5373 17.0071 25.4701 16.9628 25.3966 16.9628V16.9643ZM26.3142 19.2016V18.9034C26.3142 16.3159 25.7652 14.0449 24.6733 12.089C23.5783 10.1315 22.0613 8.59919 20.1191 7.48587C18.18 6.37562 15.9687 5.8205 13.4775 5.8205C10.9863 5.8205 8.62663 6.3848 6.58811 7.51187C4.54653 8.63895 2.93926 10.2065 1.76325 12.2144C0.587241 14.2193 0 16.5331 0 19.1527C0 21.7723 0.611709 24.077 1.83972 26.0665C3.06466 28.0546 4.77439 29.616 6.96278 30.74C9.15117 31.8671 11.6882 32.4344 14.5755 32.4344C16.9612 32.4344 19.1419 32.0261 21.1177 31.2156C23.0339 30.425 24.6152 29.3468 25.86 27.9781C25.9227 27.9093 25.9227 27.8053 25.8615 27.735L22.618 23.9806C22.5476 23.898 22.4207 23.898 22.3473 23.9791C20.3133 26.1996 17.842 27.3098 14.9227 27.3098C13.297 27.3098 11.8641 26.9856 10.6193 26.3403C9.37751 25.6919 8.39724 24.7483 7.6846 23.505C7.27934 22.8015 6.99031 22.0124 6.8175 21.1392C6.68293 20.4755 6.61564 19.7614 6.61564 19.0013C6.61564 18.2413 6.67222 17.5974 6.7808 16.9628C6.92302 16.1354 7.15853 15.3815 7.48426 14.6979C8.06386 13.4883 8.86673 12.56 9.89746 11.9116C10.9236 11.2662 12.1164 10.942 13.4775 10.942C14.8385 10.942 15.8907 11.2586 16.8358 11.8887C17.7824 12.5187 18.5302 13.3965 19.0762 14.5236C19.4279 15.2531 19.671 16.0666 19.7934 16.9628C19.8622 17.4506 19.8974 17.966 19.8974 18.5043V19.0197C19.8974 19.1206 19.9784 19.2016 20.0794 19.2016H26.3142Z" fill="white"/>
<path d="M52.8211 6.61571H45.8613C45.8017 6.61571 45.7451 6.64477 45.7115 6.69523L40.3437 14.6016C40.2718 14.7071 40.1159 14.7071 40.044 14.6016L34.7267 6.69523C34.693 6.64477 34.6365 6.61571 34.5768 6.61571H27.666C27.5177 6.61571 27.4321 6.78393 27.5192 6.90321L35.9883 18.5486C36.0342 18.6129 36.0342 18.6985 35.9883 18.7627L26.7271 31.3487C26.6399 31.4679 26.724 31.6362 26.8723 31.6362H33.8321C33.8917 31.6362 33.9468 31.6071 33.9804 31.5582L40.047 22.7985C40.1189 22.6945 40.2718 22.6945 40.3452 22.7985L46.4119 31.5582C46.4455 31.6071 46.5006 31.6362 46.5602 31.6362H47.3646C47.438 31.6362 47.5022 31.5933 47.5298 31.5245C48.1965 29.8301 49.4796 26.5498 49.6952 26.0038C49.7151 25.9549 49.7075 25.9014 49.6769 25.8586C49.1783 25.1811 45.0753 19.6054 44.4544 18.7612C44.407 18.697 44.407 18.6113 44.4544 18.5471L52.9709 6.90169C53.0581 6.7824 52.9725 6.61418 52.8241 6.61418L52.8211 6.61571Z" fill="white"/>
<path d="M66.2618 25.6445C65.8642 25.2316 65.6654 24.5755 65.6654 23.6793V0.154533C65.6654 0.0688936 65.5966 7.62939e-05 65.511 7.62939e-05H59.2516C59.166 7.62939e-05 59.0972 0.0688936 59.0972 0.154533V24.8232C59.0972 27.0789 59.6691 28.7779 60.8146 29.9234C61.0929 30.2017 61.4033 30.4449 61.7459 30.6528C61.8223 30.6987 61.9217 30.6681 61.9615 30.5886C62.9326 28.6724 64.5139 27.0713 66.4346 26.0788C66.5386 26.0253 66.5463 25.8861 66.453 25.8157C66.3842 25.7637 66.3184 25.7056 66.2603 25.6429L66.2618 25.6445ZM54.7219 6.77017V11.7357C54.7219 11.8214 54.7907 11.8902 54.8764 11.8902H71.729C71.8146 11.8902 71.8834 11.8214 71.8834 11.7357V6.77017C71.8834 6.68453 71.8146 6.61571 71.729 6.61571H54.8764C54.7907 6.61571 54.7219 6.68453 54.7219 6.77017Z" fill="white"/>
<path d="M90.7364 6.16609C89.5099 6.16609 88.2559 6.42454 86.9805 6.93685C85.702 7.45221 84.5918 8.32543 83.6482 9.54884C83.3592 9.92199 83.1007 10.3425 82.8728 10.8074C82.7994 10.9573 82.5762 10.9084 82.5762 10.7417V6.77016C82.5762 6.68452 82.5058 6.61417 82.4202 6.61417H76.2159C76.1303 6.61417 76.0599 6.68452 76.0599 6.77016V25.6643C76.0599 25.7255 76.0966 25.7806 76.1517 25.805C77.057 26.2042 77.9241 26.7455 78.7515 27.4444C80.1553 28.6311 81.1203 30.0075 81.6938 31.5367C81.7167 31.5964 81.7733 31.6377 81.8375 31.6377H82.4707C82.5563 31.6377 82.6266 31.5673 82.6266 31.4817V20.9419C82.6266 18.8851 82.9478 17.212 83.5962 15.9183C84.2416 14.6245 85.1301 13.6702 86.2571 13.0585C87.3842 12.4468 88.7269 12.1379 90.2883 12.1379H91.475C91.5607 12.1379 91.631 12.0676 91.631 11.9819V6.32361C91.631 6.23797 91.5607 6.16762 91.475 6.16762H90.7348L90.7364 6.16609Z" fill="white"/>
<path d="M118.661 16.9643H97.4514C97.4239 16.9643 97.4025 16.9857 97.4025 17.0132V21.0918C97.4025 21.1193 97.4239 21.1408 97.4514 21.1408H119.441C119.468 21.1408 119.49 21.1193 119.49 21.0918V18.9126C119.49 18.9126 119.49 18.9004 119.487 18.8943L118.707 16.9949C118.699 16.9765 118.681 16.9643 118.661 16.9643ZM117.85 12.089C116.754 10.1315 115.238 8.59919 113.296 7.48587C111.357 6.37562 109.143 5.8205 106.658 5.8205C104.173 5.8205 101.807 6.3848 99.7668 7.51187C97.7282 8.63895 96.1179 10.2065 94.9419 12.2144C93.7628 14.2193 93.1741 16.5346 93.1741 19.1542C93.1741 21.7739 93.7888 24.0785 95.0168 26.0681C95.8855 27.4735 96.9927 28.6648 98.3415 29.6405C98.3675 29.6603 98.4072 29.6481 98.4179 29.6175C98.5097 29.3698 98.5999 29.1236 98.6917 28.8758C99.0725 27.8405 99.4777 26.8113 99.8264 25.7653C99.961 25.357 100.178 25.2392 100.583 25.2392C101.071 25.2392 101.561 25.2407 102.048 25.2423C102.114 25.2423 102.145 25.1643 102.099 25.1184C101.623 24.6535 101.21 24.1167 100.862 23.5081C100.456 22.8046 100.167 22.0155 99.9916 21.1423C99.8585 20.4786 99.7928 19.7644 99.7928 19.0044C99.7928 18.2443 99.8463 17.6005 99.9579 16.9658C100.1 16.1385 100.336 15.3846 100.661 14.701C101.241 13.4913 102.047 12.5631 103.075 11.9147C104.101 11.2693 105.297 10.9451 106.656 10.9451C108.016 10.9451 109.068 11.2617 110.014 11.8917C110.958 12.5218 111.706 13.3996 112.252 14.5266C112.607 15.2561 112.844 16.0697 112.969 16.9658C113.038 17.4537 113.073 17.969 113.073 18.5073V19.1542C113.073 19.1818 113.094 19.2032 113.122 19.2032H119.49V18.905C119.49 16.3174 118.944 14.0465 117.849 12.0905L117.85 12.089Z" fill="white"/>
<path d="M161.328 8.55484C159.702 6.73347 157.43 5.8205 154.513 5.8205C153.317 5.8205 152.108 6.02695 150.88 6.43985C149.653 6.85581 148.551 7.55163 147.57 8.5319C146.881 9.2216 146.309 10.0994 145.859 11.1638C145.815 11.2678 145.668 11.2632 145.631 11.1561C145.107 9.60698 144.295 8.3912 143.195 7.51187C141.784 6.3848 140.034 5.8205 137.945 5.8205C136.887 5.8205 135.815 6.01165 134.738 6.39244C133.659 6.77476 132.681 7.40482 131.802 8.28263C131.239 8.84846 130.759 9.56722 130.366 10.4389C130.313 10.5582 130.135 10.5215 130.135 10.3915V6.73806C130.135 6.67077 130.082 6.61725 130.014 6.61725H123.74C123.672 6.61725 123.619 6.67077 123.619 6.73806V30.7522C123.619 30.8134 123.703 30.8287 123.723 30.7706C124.043 29.8913 125.012 27.2257 125.549 25.8433C125.644 25.6016 125.962 25.2774 126.182 25.2744C127.491 25.2514 128.802 25.2469 130.111 25.2484C130.152 25.2484 130.184 25.2147 130.184 25.175V19.301C130.184 17.4109 130.458 15.877 131.005 14.6979C131.551 13.5219 132.262 12.6594 133.143 12.1135C134.021 11.5644 134.96 11.2922 135.956 11.2922C137.346 11.2922 138.444 11.7648 139.237 12.7083C140.034 13.655 140.433 15.0894 140.433 17.0132V24.8752C140.433 24.9471 140.494 25.0022 140.566 24.9945C140.767 24.9731 140.969 24.9578 141.172 24.9471C143.261 24.8385 145.169 25.1337 146.829 25.8876C146.908 25.9243 146.998 25.8677 146.998 25.779V19.2995C146.998 17.4093 147.272 15.8755 147.82 14.6964C148.369 13.5204 149.08 12.6579 149.958 12.1119C150.838 11.5629 151.774 11.2907 152.77 11.2907C154.129 11.2907 155.206 11.7633 156.003 12.7068C156.8 13.6534 157.199 15.0879 157.199 17.0117V31.5153C157.199 31.5826 157.252 31.6362 157.319 31.6362H163.642C163.709 31.6362 163.762 31.5826 163.762 31.5153V16.5147C163.762 13.0325 162.949 10.3793 161.326 8.55484H161.328Z" fill="white"/>
<path d="M193.513 12.2358C192.352 10.2462 190.726 8.6787 188.637 7.53633C186.548 6.3909 184.144 5.81895 181.425 5.81895C178.706 5.81895 176.302 6.3909 174.213 7.53633C172.124 8.6787 170.499 10.2462 169.338 12.2358C168.177 14.2254 167.598 16.5315 167.598 19.1527C167.598 21.7739 168.177 23.9852 169.338 25.9901C170.499 27.998 172.124 29.5716 174.213 30.7171C176.302 31.8594 178.706 32.4344 181.425 32.4344C184.144 32.4344 186.548 31.861 188.637 30.7171C190.726 29.5716 192.352 27.998 193.513 25.9901C194.673 23.9852 195.253 21.6882 195.253 19.1007C195.253 16.5132 194.673 14.2254 193.513 12.2343V12.2358ZM187.593 23.2068C186.996 24.3828 186.166 25.3034 185.105 25.9671C184.043 26.6308 182.815 26.9627 181.424 26.9627C180.032 26.9627 178.804 26.6308 177.743 25.9671C176.682 25.3034 175.853 24.3828 175.255 23.2068C174.658 22.0277 174.359 20.6758 174.359 19.1527C174.359 17.6295 174.657 16.2257 175.255 15.0481C175.851 13.8721 176.682 12.9515 177.743 12.2878C178.804 11.6241 180.032 11.2922 181.424 11.2922C182.815 11.2922 184.043 11.6241 185.105 12.2878C186.166 12.9515 186.995 13.8721 187.593 15.0481C188.189 16.2272 188.489 17.5913 188.489 19.1527C188.489 20.7141 188.191 22.0277 187.593 23.2068Z" fill="white"/>
<path d="M79.7578 32.0506C79.6996 31.9099 79.64 31.7723 79.5773 31.6377C79.1644 30.7722 78.6123 30.0075 77.9272 29.3469C77.3706 28.8131 76.7482 28.362 76.0615 27.9919C75.7679 27.8314 75.462 27.6876 75.1424 27.5607C74.231 27.1936 73.2446 26.9841 72.1802 26.9337C72.0074 26.923 71.8285 26.9184 71.6465 26.9184C70.3787 26.9184 69.215 27.1325 68.1536 27.5607C67.0923 27.9889 66.1641 28.5838 65.3704 29.3469C64.7357 29.9586 64.2173 30.6559 63.8166 31.4435C63.7172 31.6392 63.6224 31.8411 63.5383 32.0506C63.1101 33.089 62.896 34.2268 62.896 35.464C62.896 36.7011 63.1101 37.842 63.5383 38.888C63.965 39.934 64.5767 40.8378 65.3704 41.6025C66.1641 42.3656 67.0923 42.962 68.1536 43.3887C69.215 43.8169 70.3787 44.031 71.6465 44.031C72.9143 44.031 74.0811 43.8169 75.1424 43.3887C76.2037 42.962 77.1305 42.3656 77.9257 41.6025C78.7194 40.8363 79.3296 39.934 79.7578 38.888C80.186 37.842 80.3985 36.6996 80.3985 35.464C80.3985 34.2283 80.1875 33.089 79.7578 32.0506ZM76.4484 38.4751C75.982 39.356 75.3366 40.0441 74.5124 40.5488C73.685 41.0535 72.7308 41.3043 71.6465 41.3043C70.5622 41.3043 69.6279 41.055 68.7959 40.5488C67.9609 40.0441 67.3141 39.3544 66.8461 38.4751C66.3812 37.5973 66.1472 36.5941 66.1472 35.464C66.1472 34.3338 66.3812 33.3337 66.8461 32.4605C67.0036 32.1638 67.1856 31.8885 67.3844 31.6362C67.7744 31.1438 68.2439 30.7324 68.7959 30.399C69.6279 29.8959 70.5775 29.6435 71.6465 29.6435C71.827 29.6435 72.0059 29.6512 72.1802 29.6634C73.0473 29.7353 73.8257 29.98 74.5124 30.3975C75.3366 30.9021 75.982 31.5888 76.4484 32.4589C76.9133 33.3322 77.1442 34.3323 77.1442 35.4624C77.1442 36.5926 76.9118 37.5958 76.4484 38.4736V38.4751Z" fill="white"/>
<path d="M150.178 32.0506C149.751 31.0122 149.139 30.1115 148.346 29.3469C147.933 28.9508 147.483 28.5991 146.998 28.2932C146.552 28.0103 146.072 27.7656 145.562 27.5607C144.501 27.1325 143.337 26.9184 142.069 26.9184C141.504 26.9184 140.958 26.9612 140.435 27.0453C139.785 27.1524 139.164 27.3236 138.575 27.5607C137.514 27.9889 136.585 28.5838 135.792 29.3469C134.998 30.113 134.386 31.0122 133.96 32.0506C133.532 33.089 133.319 34.2268 133.319 35.464C133.319 36.7011 133.53 37.842 133.96 38.888C134.386 39.934 134.998 40.8378 135.792 41.6025C136.585 42.3656 137.514 42.962 138.575 43.3887C139.636 43.8169 140.802 44.031 142.071 44.031C143.34 44.031 144.503 43.8169 145.564 43.3887C146.625 42.962 147.552 42.3656 148.347 41.6025C149.141 40.8363 149.753 39.934 150.179 38.888C150.607 37.842 150.82 36.6996 150.82 35.464C150.82 34.2283 150.609 33.089 150.179 32.0506H150.178ZM146.868 38.4751C146.402 39.356 145.757 40.0441 144.932 40.5488C144.108 41.0535 143.151 41.3043 142.069 41.3043C140.988 41.3043 140.049 41.055 139.217 40.5488C138.382 40.0441 137.736 39.3544 137.268 38.4751C136.803 37.5973 136.572 36.5941 136.572 35.464C136.572 34.3338 136.804 33.3337 137.268 32.4605C137.734 31.5903 138.382 30.9037 139.217 30.399C139.598 30.1696 140.003 29.9907 140.435 29.8653C140.942 29.7169 141.488 29.6435 142.069 29.6435C143.151 29.6435 144.108 29.8959 144.932 30.399C145.475 30.7339 145.943 31.1438 146.33 31.6362C146.529 31.8885 146.708 32.1638 146.868 32.4605C147.333 33.3337 147.567 34.3338 147.567 35.464C147.567 36.5941 147.333 37.5973 146.868 38.4751Z" fill="white"/>
<path d="M54.8107 27.2839H51.3974L51.1604 27.8803L49.68 31.6362L44.9377 43.6639H48.1446L49.5026 40.0671H56.5923L57.9503 43.6639H61.2719L54.8123 27.2839H54.8107ZM50.4859 37.4566L52.682 31.6377L53.0444 30.6758L53.4099 31.6377L55.6044 37.4566H50.4859Z" fill="white"/>
<path d="M104.729 27.2854L102.943 31.8289L98.2911 43.6655H95.153L88.6934 27.2854H92.0593L96.7679 40.1053L100.195 30.7706L101.475 27.2854H104.729Z" fill="white"/>
<path d="M130.478 27.2854L130.186 28.0271L128.766 31.6393L124.039 43.6655H120.901L115.723 30.5367L114.442 27.2854H117.809L118.326 28.6908L122.516 40.1053L125.627 31.6393L127.225 27.2854H130.478Z" fill="white"/>
<path d="M111.142 27.2854H108.049V43.6655H111.142V27.2854Z" fill="white"/>
<path d="M280.412 8.2291H208.591C206.058 8.2291 204.004 10.2831 204.004 12.8169V34.4623C204.004 36.996 206.058 39.0501 208.591 39.0501H280.412C282.946 39.0501 285 36.996 285 34.4623V12.8169C285 10.2831 282.946 8.2291 280.412 8.2291Z" stroke="white" stroke-width="0.611709" stroke-miterlimit="10"/>
<path d="M231.751 28.4202C231.047 28.4202 230.399 28.2933 229.804 28.0409C229.209 27.7886 228.692 27.4369 228.256 26.9857C227.819 26.5346 227.481 26.0009 227.242 25.383C227.004 24.7652 226.885 24.0923 226.885 23.3613C226.885 22.6303 227.004 21.959 227.242 21.3458C227.481 20.7325 227.819 20.2003 228.256 19.7507C228.694 19.2996 229.209 18.9479 229.804 18.6955C230.399 18.4432 231.049 18.3163 231.751 18.3163C232.453 18.3163 233.101 18.4432 233.691 18.6955C234.282 18.9479 234.799 19.2996 235.239 19.7507C235.681 20.2019 236.02 20.7341 236.261 21.3458C236.499 21.959 236.618 22.6303 236.618 23.3613C236.618 24.0923 236.499 24.7652 236.261 25.383C236.022 26.0009 235.681 26.5346 235.239 26.9857C234.797 27.4369 234.282 27.7886 233.691 28.0409C233.101 28.2933 232.454 28.4202 231.751 28.4202ZM231.751 26.7839C232.336 26.7839 232.85 26.637 233.292 26.345C233.734 26.0529 234.078 25.6461 234.326 25.1277C234.574 24.6092 234.698 24.0205 234.698 23.3629C234.698 22.7053 234.574 22.1073 234.326 21.5981C234.078 21.0888 233.733 20.6882 233.292 20.3946C232.85 20.1025 232.336 19.9557 231.751 19.9557C231.165 19.9557 230.662 20.1025 230.215 20.3946C229.769 20.6882 229.422 21.0888 229.174 21.5981C228.926 22.1073 228.802 22.6961 228.802 23.3629C228.802 24.0296 228.926 24.6092 229.174 25.1277C229.422 25.6461 229.769 26.0513 230.215 26.345C230.662 26.6386 231.173 26.7839 231.751 26.7839Z" fill="white"/>
<path d="M239.527 28.2031H237.742V18.535H239.649L244.653 26.4459H243.924V18.535H245.708V28.2031H243.801L238.798 20.2921H239.527V28.2031Z" fill="white"/>
<path d="M253.468 28.2031H247.302V18.535H249.128V26.608H253.468V28.2031Z" fill="white"/>
<path d="M256.118 28.2031H254.292V18.535H256.118V28.2031Z" fill="white"/>
<path d="M259.486 28.2031H257.701V18.535H259.608L264.612 26.4459H263.882V18.535H265.667V28.2031H263.76L258.756 20.2921H259.486V28.2031Z" fill="white"/>
<path d="M273.697 28.2031H267.26V18.535H273.697V20.0903H269.086V26.6493H273.697V28.2046V28.2031ZM273.454 24.0924H268.95V22.5233H273.454V24.0924Z" fill="white"/>
<path d="M217.801 27.5974C220.173 27.5974 222.096 25.6742 222.096 23.3017C222.096 20.9292 220.173 19.006 217.801 19.006C215.428 19.006 213.505 20.9292 213.505 23.3017C213.505 25.6742 215.428 27.5974 217.801 27.5974Z" fill="#E30613"/>
</svg>
